<svg width="10" height="18" viewBox="0 0 10 18" fill="none" xmlns="http://www.w3.org/2000/svg">
<path d="M0.547781 15.5408L7.0885 9L0.547781 2.4593C0.498961 2.41049 0.456251 2.35788 0.419641 2.30243C0.188831 1.95287 0.200531 1.49031 0.454721 1.1522C0.482791 1.11487 0.513801 1.07906 0.547781 1.04509C0.652181 0.940693 0.773922 0.864203 0.903732 0.815623C1.0774 0.750623 1.26552 0.735583 1.44588 0.770503C1.63497 0.807113 1.81554 0.898643 1.96199 1.04509L9.2098 8.2929C9.3974 8.4805 9.5027 8.7348 9.5027 9C9.5027 9.2653 9.3974 9.5196 9.2098 9.7072L1.96199 16.955C1.57146 17.3455 0.938301 17.3455 0.547781 16.955C0.498961 16.9062 0.456251 16.8536 0.419641 16.7981C0.163351 16.41 0.206071 15.8825 0.547781 15.5408Z" fill="url(#paint0_linear_464_275)"/>
<defs>
<linearGradient id="paint0_linear_464_275" x1="4.41319" y1="0.752197" x2="4.41319" y2="17.2479" gradientUnits="userSpaceOnUse">
<stop offset="0.0001" stop-color="#ED0189"/>
<stop offset="1" stop-color="#F3293B"/>
</linearGradient>
</defs>
</svg>
