<svg width="32" height="32" viewBox="0 0 32 32" fill="none" xmlns="http://www.w3.org/2000/svg">
<path fill-rule="evenodd" clip-rule="evenodd" d="M3.73825 11.1377C3.36473 14.6082 3.38139 18.6109 3.90115 22.0673C4.18875 23.9798 5.74964 25.446 7.6764 25.6136L9.69004 25.7885C13.8888 26.1536 18.1112 26.1536 22.31 25.7885L24.3236 25.6136C26.2504 25.446 27.8113 23.9798 28.0989 22.0673C28.6187 18.6109 28.6353 14.6085 28.2617 11.1379C28.2135 10.7355 28.1592 10.3337 28.0989 9.93261C27.8113 8.0201 26.2504 6.5539 24.3236 6.3864L22.31 6.21136C18.1112 5.84638 13.8888 5.84638 9.69004 6.21136L7.6764 6.3864C5.74964 6.5539 4.18875 8.0201 3.90115 9.93261C3.84084 10.3337 3.78655 10.7354 3.73825 11.1377ZM9.86324 8.20385C13.9467 7.84888 18.0533 7.84888 22.1368 8.20385L24.1504 8.37889C25.1561 8.46632 25.9709 9.23168 26.1211 10.23C26.1367 10.3337 26.1519 10.4374 26.1667 10.5412L18.752 14.6605C17.0405 15.6113 14.9595 15.6113 13.248 14.6605L5.8334 10.5412C5.84815 10.4375 5.86332 10.3337 5.87891 10.23C6.02904 9.23168 6.84383 8.46632 7.8496 8.37889L9.86324 8.20385ZM26.4113 12.6931C26.67 15.7168 26.5732 18.7633 26.1211 21.7698C25.9709 22.7682 25.1561 23.5336 24.1504 23.621L22.1368 23.7961C18.0533 24.151 13.9467 24.151 9.86324 23.7961L7.8496 23.621C6.84383 23.5336 6.02904 22.7682 5.87891 21.7698C5.42679 18.7633 5.33004 15.7169 5.58867 12.6932L12.2767 16.4088C14.5923 17.6952 17.4077 17.6952 19.7232 16.4088L26.4113 12.6931Z" fill="#268CDE"/>
</svg>
