<svg width="32" height="32" viewBox="0 0 32 32" fill="none" xmlns="http://www.w3.org/2000/svg">
<path fill-rule="evenodd" clip-rule="evenodd" d="M9.66663 13.3333C9.66663 9.83553 12.5022 7 16 7C19.4977 7 22.3333 9.83553 22.3333 13.3333C22.3333 16.8312 19.4977 19.6667 16 19.6667C12.5022 19.6667 9.66663 16.8312 9.66663 13.3333ZM16 9C13.6068 9 11.6666 10.9401 11.6666 13.3333C11.6666 15.7265 13.6068 17.6667 16 17.6667C18.3932 17.6667 20.3333 15.7265 20.3333 13.3333C20.3333 10.9401 18.3932 9 16 9Z" fill="#268CDE"/>
<path fill-rule="evenodd" clip-rule="evenodd" d="M4.69914 11.8092C5.17158 6.07767 9.96112 1.66669 15.712 1.66669H16.288C22.0389 1.66669 26.8284 6.07767 27.3008 11.8092C27.5547 14.888 26.6036 17.9452 24.648 20.3368L18.2573 28.1526C17.0907 29.5794 14.9093 29.5794 13.7427 28.1526L7.35194 20.3368C5.3964 17.9452 4.44536 14.888 4.69914 11.8092ZM15.712 3.66669C11.002 3.66669 7.0793 7.27933 6.69238 11.9735C6.48116 14.5359 7.27269 17.0803 8.90024 19.0708L15.2909 26.8865C15.6575 27.3347 16.3425 27.3347 16.7091 26.8865L23.0997 19.0708C24.7273 17.0803 25.5188 14.5359 25.3076 11.9735C24.9207 7.27933 20.998 3.66669 16.288 3.66669H15.712Z" fill="#268CDE"/>
</svg>
