<svg width="44" height="36" viewBox="0 0 44 36" fill="none" xmlns="http://www.w3.org/2000/svg">
<path d="M26.6667 11C26.6667 9.06699 28.2337 7.5 30.1667 7.5C32.0996 7.5 33.6667 9.06699 33.6667 11C33.6667 12.933 32.0996 14.5 30.1667 14.5C28.2337 14.5 26.6667 12.933 26.6667 11Z" fill="url(#paint0_linear_464_212)"/>
<path fill-rule="evenodd" clip-rule="evenodd" d="M10.9576 0.869945C18.3054 0.231218 25.6946 0.231218 33.0425 0.869945L36.5663 1.17627C39.9382 1.46938 42.6698 4.03523 43.1731 7.38214C44.2315 14.4211 44.2315 21.5789 43.1731 28.6178C42.6698 31.9648 39.9382 34.5305 36.5663 34.8238L33.0425 35.1299C25.6946 35.7688 18.3054 35.7688 10.9576 35.1299L7.4337 34.8238C4.06188 34.5305 1.33031 31.9648 0.827012 28.6178C-0.231481 21.5789 -0.231481 14.4211 0.827012 7.38214C1.33031 4.03523 4.06188 1.46938 7.4337 1.17627L10.9576 0.869945ZM32.7394 4.35681C25.5933 3.7356 18.4067 3.7356 11.2607 4.35681L7.7368 4.66313C5.9767 4.81613 4.55083 6.15551 4.28812 7.90259C3.68719 11.8987 3.44501 15.935 3.56154 19.9635L12.5959 10.9292C12.9367 10.5884 13.403 10.4033 13.8847 10.4174C14.3665 10.4316 14.8211 10.6438 15.1413 11.004L23.708 20.6416L29.6132 18.6732C30.2738 18.4529 31.0018 18.6452 31.4675 19.1627L39.6787 28.2863C39.6913 28.224 39.7023 28.161 39.7119 28.0973C40.7185 21.4034 40.7185 14.5966 39.7119 7.90259C39.4491 6.15551 38.0232 4.81613 36.2632 4.66313L32.7394 4.35681ZM37.4471 31.0387L29.6326 22.3561L23.7201 24.3268C23.0558 24.5483 22.3239 24.3525 21.8586 23.8294L13.7584 14.7165L3.85647 24.6185C3.97029 25.7807 4.11417 26.9406 4.28812 28.0973C4.55083 29.8445 5.9767 31.1838 7.7368 31.3369L11.2607 31.6432C18.4067 32.2644 25.5933 32.2644 32.7394 31.6432L36.2632 31.3369C36.6802 31.3007 37.0785 31.1978 37.4471 31.0387Z" fill="url(#paint1_linear_464_212)"/>
<defs>
<linearGradient id="paint0_linear_464_212" x1="19.7881" y1="0.390899" x2="19.7881" y2="35.6091" gradientUnits="userSpaceOnUse">
<stop offset="0.0001" stop-color="#ED0189"/>
<stop offset="1" stop-color="#F3293B"/>
</linearGradient>
<linearGradient id="paint1_linear_464_212" x1="19.7881" y1="0.390899" x2="19.7881" y2="35.6091" gradientUnits="userSpaceOnUse">
<stop offset="0.0001" stop-color="#ED0189"/>
<stop offset="1" stop-color="#F3293B"/>
</linearGradient>
</defs>
</svg>
