<svg width="46" height="46" viewBox="0 0 46 46" fill="none" xmlns="http://www.w3.org/2000/svg">
<path d="M36.4167 20.6667C34.8057 20.6667 33.5 21.9724 33.5 23.5833C33.5 25.1943 34.8057 26.5 36.4167 26.5C38.0276 26.5 39.3333 25.1943 39.3333 23.5833C39.3333 21.9724 38.0276 20.6667 36.4167 20.6667Z" fill="url(#paint0_linear_464_220)"/>
<path fill-rule="evenodd" clip-rule="evenodd" d="M4.73733 13.9358L9.58333 13.3972V4.13039C9.58333 2.62938 10.7268 1.37551 12.2214 1.23754C19.392 0.575645 26.608 0.575645 33.7786 1.23754C35.2731 1.37551 36.4167 2.62938 36.4167 4.13039V13.3971L41.2628 13.9358C43.0508 14.1345 44.5259 15.4258 44.9595 17.1719C46.2797 22.4892 46.2797 28.0486 44.9595 33.3658L44.5318 35.0883C44.3381 35.8688 43.6374 36.4167 42.8333 36.4167H36.4167V41.8603C36.4167 43.3117 35.3167 44.5271 33.8726 44.6715C26.6423 45.3946 19.3577 45.3946 12.1274 44.6715C10.6832 44.5271 9.58333 43.3117 9.58333 41.8603V36.4167H3.16674C2.36265 36.4167 1.66204 35.8688 1.4683 35.0883L1.04063 33.3658C-0.279574 28.0486 -0.279574 22.4892 1.04063 17.1719C1.47416 15.4258 2.94925 14.1345 4.73733 13.9358ZM32.9167 13.059C26.3166 12.5178 19.6834 12.5178 13.0833 13.059V4.67417C19.6818 4.09679 26.3182 4.09679 32.9167 4.67417V13.059ZM32.9167 33.5037C32.9125 33.1353 32.6763 32.818 32.341 32.6997C26.126 32.1485 19.8743 32.1485 13.6591 32.6994C13.3208 32.8191 13.0834 33.1411 13.0834 33.514V34.6667L13.0833 34.6814V41.2478C19.6799 41.869 26.3201 41.869 32.9167 41.2478V33.5037ZM41.4648 32.9167H36.4167V32.1397C36.4167 30.6883 35.3167 29.4729 33.8726 29.3285C33.5567 29.297 33.2405 29.2666 32.9244 29.2379C32.7918 29.2111 32.6572 29.1901 32.5202 29.1754C26.1918 28.4936 19.8082 28.4936 13.4798 29.1754C13.343 29.1901 13.2083 29.2111 13.0758 29.2379C12.7596 29.2666 12.4434 29.297 12.1274 29.3285C10.6832 29.4729 9.58333 30.6883 9.58333 32.1397V32.9167H4.53535L4.43749 32.5226C3.2548 27.7591 3.2548 22.7788 4.43749 18.0153C4.51799 17.691 4.79193 17.4512 5.12396 17.4143L9.98271 16.8743C18.6343 15.9127 27.3659 15.9127 36.0174 16.8743L40.8761 17.4143C41.2082 17.4512 41.4821 17.691 41.5626 18.0153C42.7454 22.7788 42.7454 27.7591 41.5626 32.5226L41.4648 32.9167Z" fill="url(#paint1_linear_464_220)"/>
<defs>
<linearGradient id="paint0_linear_464_220" x1="20.6892" y1="0.741118" x2="20.6892" y2="45.2139" gradientUnits="userSpaceOnUse">
<stop offset="0.0001" stop-color="#ED0189"/>
<stop offset="1" stop-color="#F3293B"/>
</linearGradient>
<linearGradient id="paint1_linear_464_220" x1="20.6892" y1="0.741118" x2="20.6892" y2="45.2139" gradientUnits="userSpaceOnUse">
<stop offset="0.0001" stop-color="#ED0189"/>
<stop offset="1" stop-color="#F3293B"/>
</linearGradient>
</defs>
</svg>
