<svg width="16" height="15" viewBox="0 0 16 15" fill="none" xmlns="http://www.w3.org/2000/svg">
<path d="M13.6585 0.42888C14.049 0.0383601 14.6822 0.0383501 15.0727 0.42888C15.4632 0.8194 15.4632 1.45257 15.0727 1.84309L9.4158 7.5L15.0727 13.1568C15.4632 13.5473 15.4632 14.1805 15.0727 14.571C14.6822 14.9615 14.049 14.9615 13.6585 14.571L8.0016 8.9142L2.34481 14.571C2.3387 14.5771 2.33254 14.5831 2.32632 14.589C1.93455 14.9614 1.31501 14.9554 0.930593 14.571C0.637703 14.2781 0.564473 13.8487 0.710923 13.4876C0.759733 13.3672 0.832963 13.2544 0.930593 13.1568L6.5874 7.5L0.930593 1.84314C0.540063 1.45262 0.540063 0.81945 0.930593 0.42893C1.32111 0.0383997 1.95428 0.0383997 2.3448 0.42893L8.0016 6.0857L13.6585 0.42888Z" fill="#131415"/>
</svg>
