<svg width="32" height="32" viewBox="0 0 32 32" fill="none" xmlns="http://www.w3.org/2000/svg">
<path fill-rule="evenodd" clip-rule="evenodd" d="M7.78704 13.1418C10.1701 18.3309 14.4108 22.4565 19.6824 24.692L19.6991 24.699L20.7175 25.1529C22.0144 25.7308 23.5387 25.3204 24.3701 24.1696L26.0693 21.818C26.1731 21.6744 26.1463 21.4746 26.0084 21.3633L23.0421 18.9702C22.8947 18.8513 22.6777 18.879 22.5649 19.0312L21.4105 20.589C21.1301 20.9674 20.6237 21.0989 20.1948 20.9048C16.2529 19.1208 13.0853 15.9532 11.3014 12.0113C11.1072 11.5823 11.2387 11.076 11.617 10.7956L13.1749 9.6411C13.3271 9.52829 13.3548 9.31146 13.2358 9.16399L10.8424 6.19727C10.7312 6.05938 10.5315 6.0326 10.3879 6.1363L8.02351 7.84318C6.86512 8.67943 6.45719 10.2166 7.04847 11.5172L7.78626 13.14L7.78704 13.1418ZM18.8932 26.5297C13.1652 24.0982 8.55807 19.6142 5.96868 13.9745L5.96712 13.9712L5.22779 12.3449C4.24232 10.1772 4.92222 7.61532 6.85287 6.22158L9.21726 4.51469C10.2227 3.78881 11.6204 3.97629 12.399 4.94148L14.7924 7.90822C15.6252 8.94044 15.4312 10.4583 14.3656 11.248L13.4729 11.9095C14.9809 14.8353 17.3707 17.2252 20.2965 18.733L20.9581 17.8404C21.7477 16.7749 23.2656 16.5809 24.2979 17.4137L27.2641 19.8066C28.2296 20.5856 28.4169 21.9838 27.6904 22.9893L25.9912 25.3409C24.6055 27.2589 22.0649 27.9429 19.9036 26.9798L18.8932 26.5297Z" fill="#268CDE"/>
</svg>
