<svg width="10" height="17" viewBox="0 0 10 17" fill="none" xmlns="http://www.w3.org/2000/svg">
<path d="M0.547781 15.0408L7.0885 8.5L0.547781 1.9593C0.498961 1.91049 0.456251 1.85788 0.419641 1.80243C0.188831 1.45287 0.200531 0.990313 0.454721 0.652203C0.482791 0.614873 0.513801 0.579063 0.547781 0.545093C0.652181 0.440693 0.773922 0.364203 0.903732 0.315623C1.0774 0.250623 1.26552 0.235583 1.44588 0.270503C1.63497 0.307113 1.81554 0.398643 1.96199 0.545093L9.2098 7.7929C9.3974 7.9805 9.5027 8.2348 9.5027 8.5C9.5027 8.7653 9.3974 9.0196 9.2098 9.2072L1.96199 16.455C1.57146 16.8455 0.938301 16.8455 0.547781 16.455C0.498961 16.4062 0.456251 16.3536 0.419641 16.2981C0.163351 15.91 0.206071 15.3825 0.547781 15.0408Z" fill="#131415"/>
</svg>
